<?xml version="1.0" encoding="UTF-8"?>
<svg xmlns="http://www.w3.org/2000/svg" width="1000" height="1000">
   <g transform="translate(100 250)">
      <line x1="0"
            y1="0"
            x2="102"
            y2="0"
            stroke="black"
            stroke-width="1"/>
      <line x1="0"
            y1="-140"
            x2="0"
            y2="0"
            stroke="black"
            stroke-width="1"/>
      <circle fill="red" r="5" cx="102" cy="-20"/>
      <text x="102" y="-25">1911</text>
      <circle fill="red" r="5" cx="98" cy="-20"/>
      <text x="98" y="-25">1915</text>
      <circle fill="red" r="5" cx="95" cy="-20"/>
      <text x="95" y="-25">1918</text>
      <circle fill="red" r="5" cx="94" cy="-20"/>
      <text x="94" y="-25">1919</text>
      <circle fill="red" r="5" cx="93" cy="-20"/>
      <text x="93" y="-25">1920</text>
      <circle fill="red" r="5" cx="84" cy="-80"/>
      <text x="84" y="-85">1929</text>
      <circle fill="red" r="5" cx="83" cy="-120"/>
      <text x="83" y="-125">1930</text>
      <circle fill="red" r="5" cx="82" cy="-60"/>
      <text x="82" y="-65">1931</text>
      <circle fill="red" r="5" cx="81" cy="-60"/>
      <text x="81" y="-65">1932</text>
      <circle fill="red" r="5" cx="80" cy="-20"/>
      <text x="80" y="-25">1933</text>
      <circle fill="red" r="5" cx="79" cy="-40"/>
      <text x="79" y="-45">1934</text>
      <circle fill="red" r="5" cx="77" cy="-40"/>
      <text x="77" y="-45">1936</text>
      <circle fill="red" r="5" cx="76" cy="-60"/>
      <text x="76" y="-65">1937</text>
      <circle fill="red" r="5" cx="75" cy="-40"/>
      <text x="75" y="-45">1938</text>
      <circle fill="red" r="5" cx="74" cy="-40"/>
      <text x="74" y="-45">1939</text>
      <circle fill="red" r="5" cx="73" cy="-60"/>
      <text x="73" y="-65">1940</text>
      <circle fill="red" r="5" cx="72" cy="-20"/>
      <text x="72" y="-25">1941</text>
      <circle fill="red" r="5" cx="70" cy="-60"/>
      <text x="70" y="-65">1943</text>
      <circle fill="red" r="5" cx="69" cy="-120"/>
      <text x="69" y="-125">1944</text>
      <circle fill="red" r="5" cx="68" cy="-80"/>
      <text x="68" y="-85">1945</text>
      <circle fill="red" r="5" cx="67" cy="-20"/>
      <text x="67" y="-25">1946</text>
      <circle fill="red" r="5" cx="66" cy="-80"/>
      <text x="66" y="-85">1947</text>
      <circle fill="red" r="5" cx="65" cy="-40"/>
      <text x="65" y="-45">1948</text>
      <circle fill="red" r="5" cx="64" cy="-40"/>
      <text x="64" y="-45">1949</text>
      <circle fill="red" r="5" cx="63" cy="-40"/>
      <text x="63" y="-45">1950</text>
      <circle fill="red" r="5" cx="62" cy="-40"/>
      <text x="62" y="-45">1951</text>
      <circle fill="red" r="5" cx="61" cy="-40"/>
      <text x="61" y="-45">1952</text>
      <circle fill="red" r="5" cx="60" cy="-80"/>
      <text x="60" y="-85">1953</text>
      <circle fill="red" r="5" cx="58" cy="-40"/>
      <text x="58" y="-45">1955</text>
      <circle fill="red" r="5" cx="57" cy="-40"/>
      <text x="57" y="-45">1956</text>
      <circle fill="red" r="5" cx="56" cy="-20"/>
      <text x="56" y="-25">1957</text>
      <circle fill="red" r="5" cx="55" cy="-60"/>
      <text x="55" y="-65">1958</text>
      <circle fill="red" r="5" cx="54" cy="-60"/>
      <text x="54" y="-65">1959</text>
      <circle fill="red" r="5" cx="53" cy="-60"/>
      <text x="53" y="-65">1960</text>
      <circle fill="red" r="5" cx="52" cy="-40"/>
      <text x="52" y="-45">1961</text>
      <circle fill="red" r="5" cx="51" cy="-60"/>
      <text x="51" y="-65">1962</text>
      <circle fill="red" r="5" cx="50" cy="-60"/>
      <text x="50" y="-65">1963</text>
      <circle fill="red" r="5" cx="49" cy="-40"/>
      <text x="49" y="-45">1964</text>
      <circle fill="red" r="5" cx="48" cy="-40"/>
      <text x="48" y="-45">1965</text>
      <circle fill="red" r="5" cx="47" cy="-60"/>
      <text x="47" y="-65">1966</text>
      <circle fill="red" r="5" cx="46" cy="-20"/>
      <text x="46" y="-25">1967</text>
      <circle fill="red" r="5" cx="45" cy="-20"/>
      <text x="45" y="-25">1968</text>
      <circle fill="red" r="5" cx="44" cy="-60"/>
      <text x="44" y="-65">1969</text>
      <circle fill="red" r="5" cx="43" cy="-40"/>
      <text x="43" y="-45">1970</text>
      <circle fill="red" r="5" cx="42" cy="-40"/>
      <text x="42" y="-45">1971</text>
      <circle fill="red" r="5" cx="41" cy="-20"/>
      <text x="41" y="-25">1972</text>
      <circle fill="red" r="5" cx="39" cy="-20"/>
      <text x="39" y="-25">1974</text>
      <circle fill="red" r="5" cx="38" cy="-20"/>
      <text x="38" y="-25">1975</text>
      <circle fill="red" r="5" cx="37" cy="-20"/>
      <text x="37" y="-25">1976</text>
      <circle fill="red" r="5" cx="36" cy="-40"/>
      <text x="36" y="-45">1977</text>
      <circle fill="red" r="5" cx="35" cy="-40"/>
      <text x="35" y="-45">1978</text>
      <circle fill="red" r="5" cx="34" cy="-20"/>
      <text x="34" y="-25">1979</text>
      <circle fill="red" r="5" cx="32" cy="-40"/>
      <text x="32" y="-45">1981</text>
      <circle fill="red" r="5" cx="28" cy="-20"/>
      <text x="28" y="-25">1985</text>
      <circle fill="red" r="5" cx="27" cy="-60"/>
      <text x="27" y="-65">1986</text>
      <circle fill="red" r="5" cx="26" cy="-20"/>
      <text x="26" y="-25">1987</text>
      <circle fill="red" r="5" cx="25" cy="-20"/>
      <text x="25" y="-25">1988</text>
      <circle fill="red" r="5" cx="24" cy="-20"/>
      <text x="24" y="-25">1989</text>
      <circle fill="red" r="5" cx="23" cy="-80"/>
      <text x="23" y="-85">1990</text>
      <circle fill="red" r="5" cx="22" cy="-20"/>
      <text x="22" y="-25">1991</text>
      <circle fill="red" r="5" cx="21" cy="-40"/>
      <text x="21" y="-45">1992</text>
      <circle fill="red" r="5" cx="17" cy="-60"/>
      <text x="17" y="-65">1996</text>
      <circle fill="red" r="5" cx="11" cy="-40"/>
      <text x="11" y="-45">2002</text>
      <circle fill="red" r="5" cx="10" cy="-20"/>
      <text x="10" y="-25">2003</text>
      <circle fill="red" r="5" cx="8" cy="-20"/>
      <text x="8" y="-25">2005</text>
      <circle fill="red" r="5" cx="5" cy="-40"/>
      <text x="5" y="-45">2008</text>
      <circle fill="red" r="5" cx="0" cy="-20"/>
      <text x="0" y="-25">2013</text>
      <text x="20" y="10" text-anchor="middle">1910</text>
      <text x="40" y="10" text-anchor="middle">1920</text>
      <text x="60" y="10" text-anchor="middle">1930</text>
      <text x="80" y="10" text-anchor="middle">1940</text>
      <text x="100" y="10" text-anchor="middle">1950</text>
      <text x="120" y="10" text-anchor="middle">1960</text>
      <text x="140" y="10" text-anchor="middle">1970</text>
      <text x="160" y="10" text-anchor="middle">1980</text>
      <text x="180" y="10" text-anchor="middle">1990</text>
      <text x="200" y="10" text-anchor="middle">2000</text>
      <text x="220" y="10" text-anchor="middle">2010</text>
      <text x="-10" y="-20" text-anchor="middle">1</text>
      <text x="-10" y="-40" text-anchor="middle">2</text>
      <text x="-10" y="-60" text-anchor="middle">3</text>
      <text x="-10" y="-80" text-anchor="middle">4</text>
      <text x="-10" y="-100" text-anchor="middle">5</text>
      <text x="-10" y="-120" text-anchor="middle">6</text>
   </g>
</svg>
